# xmcd
#
# Track frame offsets:
#   150
#   9472
#   14400
#   18700
#   23415
#   28655
#   36410
#   41487
#   44715
#   53207
#   60975
#   64392
#   75072
#   80932
#   88075
#   93695
#   101642
#   108387
#   116545
#   120917
#   128232
#   135912
#   141677
#   145742
#   152805
#   158742
#   164087
#   169965
#   175145
#   179475
#
# Disc length: 2497 seconds
#
# Revision: 0
# Processed by: cddbd v1.5.1PL2 Copyright (c) Steve Scherf et al.
# Submitted via: GXTranscoder 2.0.1939
#
DISCID=9e09bf1e
DTITLE=sonora dinamita - 30 pegaditas de oro
DYEAR=1900
DGENRE=Latin
TTITLE0=La cumbia de batman
TTITLE1=La parabolica
TTITLE2=La chava
TTITLE3=La segunda del lagunero
TTITLE4=Cumbia errante
TTITLE5=Ecatepec
TTITLE6=Guatemalteca
TTITLE7=Poe que te quiero
TTITLE8=El chicharron peluo
TTITLE9=Largate manuel
TTITLE10=Pobre muchacho
TTITLE11=Conga
TTITLE12=El patron
TTITLE13=Maluca
TTITLE14=El desamor
TTITLE15=El viejo del sombrero
TTITLE16=El cucu -reloj de pared
TTITLE17=Cumbia iluminada
TTITLE18=La contenta
TTITLE19=La piña madura
TTITLE20=Las dos sonoras
TTITLE21=Candelarita cande
TTITLE22=Acene
TTITLE23=Que nadie sepa mi sufrir
TTITLE24=La premiada
TTITLE25=Luna del laredo
TTITLE26=Las mujeres a mi no me quieren
TTITLE27=Mal de amores
TTITLE28=Se va nicanor
TTITLE29=Oye mi queja
EXTD=
EXTT0=
EXTT1=
EXTT2=
EXTT3=
EXTT4=
EXTT5=
EXTT6=
EXTT7=
EXTT8=
EXTT9=
EXTT10=
EXTT11=
EXTT12=
EXTT13=
EXTT14=
EXTT15=
EXTT16=
EXTT17=
EXTT18=
EXTT19=
EXTT20=
EXTT21=
EXTT22=
EXTT23=
EXTT24=
EXTT25=
EXTT26=
EXTT27=
EXTT28=
EXTT29=
PLAYORDER=
